<?xml version="1.0" encoding="iso-8859-1"?>
<!-- Generator: Adobe Illustrator 19.0.0, SVG Export Plug-In . SVG Version: 6.00 Build 0)  -->
<svg version="1.1" id="Layer_1" xmlns="http://www.w3.org/2000/svg" xmlns:xlink="http://www.w3.org/1999/xlink" x="0px" y="0px"
	 viewBox="0 0 512 512" style="enable-background:new 0 0 512 512;" xml:space="preserve">
<g>
	<path style="fill:#81A4E3;" d="M73.846,226.462c10.856,0,19.692-8.832,19.692-19.692c0-10.861-8.836-19.692-19.692-19.692
		s-19.692,8.832-19.692,19.692C54.154,217.63,62.99,226.462,73.846,226.462z"/>
	<path style="fill:#81A4E3;" d="M83.692,334.769c-16.288,0-29.538,13.25-29.538,29.538c0,16.288,13.25,29.538,29.538,29.538
		s29.538-13.25,29.538-29.538C113.231,348.019,99.981,334.769,83.692,334.769z"/>
	<path style="fill:#81A4E3;" d="M231.385,157.538c38,0,68.923-30.918,68.923-68.923s-30.923-68.923-68.923-68.923
		s-68.923,30.918-68.923,68.923S193.385,157.538,231.385,157.538z"/>
	<path style="fill:#81A4E3;" d="M221.538,413.538c-21.721,0-39.385,17.668-39.385,39.385s17.663,39.385,39.385,39.385
		s39.385-17.668,39.385-39.385S243.26,413.538,221.538,413.538z"/>
	<path style="fill:#81A4E3;" d="M359.385,324.923c-27.144,0-49.231,22.087-49.231,49.231c0,27.144,22.087,49.231,49.231,49.231
		c27.144,0,49.231-22.087,49.231-49.231C408.615,347.01,386.529,324.923,359.385,324.923z"/>
	<path style="fill:#81A4E3;" d="M398.769,137.846c-32.577,0-59.077,26.5-59.077,59.077S366.192,256,398.769,256
		s59.077-26.5,59.077-59.077S431.346,137.846,398.769,137.846z"/>
</g>
<g>
	<path style="fill:#314E55;" d="M231.385,177.231c48.865,0,88.615-39.755,88.615-88.615S280.25,0,231.385,0
		s-88.615,39.755-88.615,88.615S182.519,177.231,231.385,177.231z M231.385,19.692c38,0,68.923,30.918,68.923,68.923
		s-30.923,68.923-68.923,68.923s-68.923-30.918-68.923-68.923S193.385,19.692,231.385,19.692z"/>
	<path style="fill:#314E55;" d="M398.769,118.154c-43.433,0-78.769,35.337-78.769,78.769s35.337,78.769,78.769,78.769
		s78.769-35.337,78.769-78.769S442.202,118.154,398.769,118.154z M398.769,256c-32.577,0-59.077-26.5-59.077-59.077
		s26.5-59.077,59.077-59.077s59.077,26.5,59.077,59.077S431.346,256,398.769,256z"/>
	<path style="fill:#314E55;" d="M359.385,305.231c-38,0-68.923,30.918-68.923,68.923s30.923,68.923,68.923,68.923
		s68.923-30.918,68.923-68.923S397.385,305.231,359.385,305.231z M359.385,423.385c-27.144,0-49.231-22.087-49.231-49.231
		c0-27.144,22.087-49.231,49.231-49.231c27.144,0,49.231,22.087,49.231,49.231C408.615,401.298,386.529,423.385,359.385,423.385z"/>
	<path style="fill:#314E55;" d="M221.538,393.846c-32.577,0-59.077,26.5-59.077,59.077S188.961,512,221.538,512
		s59.077-26.5,59.077-59.077S254.115,393.846,221.538,393.846z M221.538,492.308c-21.721,0-39.385-17.668-39.385-39.385
		s17.663-39.385,39.385-39.385s39.385,17.668,39.385,39.385S243.26,492.308,221.538,492.308z"/>
	<path style="fill:#314E55;" d="M83.692,315.077c-27.144,0-49.231,22.087-49.231,49.231c0,27.144,22.087,49.231,49.231,49.231
		s49.231-22.087,49.231-49.231C132.923,337.164,110.836,315.077,83.692,315.077z M83.692,393.846
		c-16.288,0-29.538-13.25-29.538-29.538c0-16.289,13.25-29.538,29.538-29.538s29.538,13.25,29.538,29.538
		C113.231,380.596,99.981,393.846,83.692,393.846z"/>
	<path style="fill:#314E55;" d="M73.846,246.154c21.721,0,39.385-17.668,39.385-39.385s-17.664-39.385-39.385-39.385
		s-39.385,17.668-39.385,39.385S52.125,246.154,73.846,246.154z M73.846,187.077c10.856,0,19.692,8.832,19.692,19.692
		c0,10.861-8.836,19.692-19.692,19.692s-19.692-8.832-19.692-19.692C54.154,195.909,62.99,187.077,73.846,187.077z"/>
</g>
<g>
</g>
<g>
</g>
<g>
</g>
<g>
</g>
<g>
</g>
<g>
</g>
<g>
</g>
<g>
</g>
<g>
</g>
<g>
</g>
<g>
</g>
<g>
</g>
<g>
</g>
<g>
</g>
<g>
</g>
</svg>
