<?xml version="1.0" encoding="iso-8859-1"?>
<!-- Generator: Adobe Illustrator 19.0.0, SVG Export Plug-In . SVG Version: 6.00 Build 0)  -->
<svg version="1.1" id="Layer_1" xmlns="http://www.w3.org/2000/svg" xmlns:xlink="http://www.w3.org/1999/xlink" x="0px" y="0px"
	 viewBox="0 0 496.2 496.2" style="enable-background:new 0 0 496.2 496.2;" xml:space="preserve">
<path style="fill:#25B7D3;" d="M496.2,248.1C496.2,111.1,385.1,0,248.1,0S0,111.1,0,248.1s111.1,248.1,248.1,248.1
	S496.2,385.1,496.2,248.1z"/>
<path style="fill:#91C5CE;" d="M264.1,105.3c-9.4-14.8-13.5-29.8-13.5-29.8l0,0c0,0-4.1,14.9-13.5,29.8c-11.5,23.2-30,35.5-30,64.7
	c0,25.2,18.4,45.5,43.5,45.5l0,0c25.2,0,43.5-20.4,43.5-45.5C294.1,140.8,275.7,128.6,264.1,105.3z"/>
<path style="fill:#B9E4EA;" d="M264.1,105.3c-9.4-14.8-13.5-29.8-13.5-29.8s-25.2,140,0,140l0,0c25.2,0,43.5-20.4,43.5-45.5
	C294.1,140.8,275.7,128.6,264.1,105.3z"/>
<path style="fill:#F2F7F7;" d="M253.1,208.2L253.1,208.2c19.7,0,34.1-16,34.1-35.6C287.2,149.7,233.4,208.2,253.1,208.2z"/>
<path style="fill:#D8EBEF;" d="M368.5,359c-13.6-10.5-6-24.6-4.5-31.6c0.7-3.2,5.6-10.2,10.7-17c-0.9-0.3-103.3-31.5-104.8-34.5
	c-3.4,0.1-5.3-3.3-5.3-3.3l-6-17.3c-5-26.1-14.3-8.7-14.3-8.7c-2.5,6-5.3,28.9-5.3,28.9c-12.1,14.6-14.1-12.6-14.1-12.6
	c-3.5-11.5-16.1-1.5-16.1-1.5c-11,2-8-5.5-8-5.5c8-44.7-13.6-40.7-13.6-40.7c-12.1,3.5-6,17.6-6,17.6c3.5,7,4,24.6,4,24.6
	c-17.1,15.6-22.6-12.1-22.6-12.1c-5.5-13.6-3.5-53.7-3.5-53.7c-9-25.1-18.1-0.5-18.1-0.5c-4,13.6,6.7,31.1,9.9,37.2
	s3.6,16.6,3.6,16.6c-4.5,3.5-13.1-14.6-13.1-14.6c-11-16.1-12.1-1.8-9,2c3.1,3.9,16.1,29.6,16.1,29.6c2.5,10.5-6,7.5-6,7.5
	c-6-13.6-30.1-69.3-30.1-69.3c-28.6-70.8-49.7-48.2-49.7-48.2c-9,10.5,42.2,78.3,42.2,78.3c28.6,46.7,40.7,122,40.7,122
	c-3,11-10.5,14.6-10.5,14.6c-22.1,12.6-24.6,20.1-24.6,20.1c0,11.5,7.8,8.5,10.5,6.5c2.8-2,10-12.1,10-12.1
	c13.6-4.5,15.1,4.5,15.1,4.5c2,4.5-3,21.6-3,21.6c3,8,10.5,0,10.5,0c11-18.1,68.8-14.6,68.8-14.6c12.6,2.5,24.6,13.6,37.7,18.1
	c13.1,4.5,34.6,0.5,44.7-4.5c10-5,27.1-11,27.1-11c7-3,8.5-2,8.5-2c4.5,6,19.1,6,24.1,1s5-18.1,5-18.1c11.5-7,22.6,6,24.1-3.5
	C395.1,363.6,368.5,359,368.5,359z"/>
<path style="fill:#A3D5E0;" d="M411.7,246.6c-8.1-4.1-21.1,20.6-21.1,20.6c-6.5,9.4-18.9,5.2-19.6,4.5c-11.6-12,0-23.1,0-23.1
	c19.1-21.6,33.6-59.8,33.6-59.8c3-19.6-17.1-16.6-21.6-11.5c-4.5,5-2,30.6-4,36.7c-2,6-23.6,34.1-27.6,35.7c-4,1.5-9,1.5-9-2.5
	s1.5-13.1-3-13.6s-7,9.5-7,9.5c-5.5,9.5-15.6,7.5-15.6,7.5c-24.6-4-38.2,18.1-38.2,18.1c-3.5,5.5-6.4,7.2-8.8,7.3
	c1.5,3,3.5,5.7,6.3,7.8c10.3,8.1,20.6,16.2,32.6,21.6c14.5,6.6,29.5,10.3,45.6,9.7c6.5-0.2,19.4-5,20.4-4.7
	c6.3-8.3,14.6-16.1,20.8-29.2c4-8.4,7.1-14.6,7.1-14.6C418.7,260.6,419.8,250.7,411.7,246.6z"/>
<path style="fill:#D8EBEF;" d="M160.6,176.3c0,0-27.1-29.1-9.5-45.2c0,0,24.1-6,16.1,17.1c-1,3-3.5,1-5.5,7.5
	C161.6,155.7,167.1,177.3,160.6,176.3z"/>
<g>
</g>
<g>
</g>
<g>
</g>
<g>
</g>
<g>
</g>
<g>
</g>
<g>
</g>
<g>
</g>
<g>
</g>
<g>
</g>
<g>
</g>
<g>
</g>
<g>
</g>
<g>
</g>
<g>
</g>
</svg>
