<?xml version="1.0" encoding="iso-8859-1"?>
<!-- Generator: Adobe Illustrator 19.0.0, SVG Export Plug-In . SVG Version: 6.00 Build 0)  -->
<svg version="1.1" id="Layer_1" xmlns="http://www.w3.org/2000/svg" xmlns:xlink="http://www.w3.org/1999/xlink" x="0px" y="0px"
	 viewBox="0 0 496.2 496.2" style="enable-background:new 0 0 496.2 496.2;" xml:space="preserve">
<path style="fill:#32BEA6;" d="M496.2,248.1C496.2,111.1,385.1,0,248.1,0S0,111.1,0,248.1s111.1,248.1,248.1,248.1
	S496.2,385.1,496.2,248.1z"/>
<path style="fill:#91C5CE;" d="M265.3,112c-11.9-18.8-17.2-37.7-17.2-37.7l0,0c0,0-5.3,18.9-17.2,37.7c-14.6,29.5-38,45-38,82.1
	c0,31.9,23.3,57.8,55.2,57.8l0,0c31.9,0,55.2-25.9,55.2-57.8C303.3,157.1,279.9,141.5,265.3,112z"/>
<path style="fill:#B9E4EA;" d="M265.3,112c-11.9-18.8-17.2-37.7-17.2-37.7s-31.9,177.6,0,177.6l0,0c31.9,0,55.2-25.9,55.2-57.8
	C303.3,157.1,279.9,141.5,265.3,112z"/>
<path style="fill:#F2F7F7;" d="M251.3,242.5L251.3,242.5c25,0,43.2-20.2,43.2-45.2C294.5,168.2,226.3,242.5,251.3,242.5z"/>
<g>
	<path style="fill:#E5AD88;" d="M285.1,297.1c0,0-20.3,4.6-33,4.2c-6.5-0.2-19.5,3.5-32.7,8.3c-12.7,4.7-25.5,5.7-26.8,9.8
		c-3.7,11.3,15.2,14.6,17.4,14.7c18.3,0.8,40.8-3,40.8-3l25.1,1.3L285.1,297.1z"/>
	<path style="fill:#E5AD88;" d="M237,377.5c6.6-1.8,1.1-18.7-0.7-25.2l0,0c-1.8-6.5-8-8.2-8-8.2l-41.3,2.7l-58.1-6.7
		c-5.2,0.1-11.5-0.2-12.8,6c-1.8,8.3,8.5,9.9,19.1,12.6c10.5,2.6,51.3,10,51.3,10L237,377.5z"/>
	<path style="fill:#E5AD88;" d="M490.7,196c-67,49.4-143.1,106.1-147.5,103.7c-6.3-3.4-44.2-7.3-63.2-1.8l-17.2,32.4l-17.2,8.7
		c-7,2.3-22.4,6.3-22.4,6.3l4,30.6c9.9,2.1,14.2,2.2,25.1,0.3c14.7-2.5,31.7-2.4,77.9-10.8c0,0,92.2-31.1,158.6-57.2
		c4.8-19.3,7.4-39.4,7.4-60.1C496.2,230.2,494.3,212.8,490.7,196z"/>
</g>
<g>
</g>
<g>
</g>
<g>
</g>
<g>
</g>
<g>
</g>
<g>
</g>
<g>
</g>
<g>
</g>
<g>
</g>
<g>
</g>
<g>
</g>
<g>
</g>
<g>
</g>
<g>
</g>
<g>
</g>
</svg>
